<?xml version="1.0" encoding="utf-8"?>
<!-- Generator: Adobe Illustrator 22.1.0, SVG Export Plug-In . SVG Version: 6.00 Build 0)  -->
<svg version="1.1" id="Layer_1" xmlns="http://www.w3.org/2000/svg" xmlns:xlink="http://www.w3.org/1999/xlink" x="0px" y="0px"
	 viewBox="0 0 1366 768" style="enable-background:new 0 0 1366 768;" xml:space="preserve">
<style type="text/css">
	.st0{fill:#E0E0DA;}
	.st1{fill:#FFFFFF;}
	.st2{fill:#EFEFEF;stroke:#CCCCC6;stroke-miterlimit:10;}
	.st3{fill:#333331;}
	.st4{fill:url(#SVGID_1_);}
	.st5{fill:none;}
	.st6{font-family:'MyriadPro-Regular';}
	.st7{font-size:15px;}
	.st8{fill:#E5E5E5;}
	.st9{fill:#FF6700;}
	.st10{font-size:30px;}
	.st11{font-size:27px;}
	.st12{fill:#DEE0E0;}
	.st13{font-size:10px;}
	.st14{font-size:20px;}
	.st15{fill:#0A0A0A;}
	.st16{fill:#70706B;}
	.st17{font-size:11px;}
	.st18{fill:#878786;}
	.st19{font-size:12px;}
	.st20{fill:#111111;stroke:#111111;stroke-linejoin:round;}
	.st21{fill:none;stroke:#111111;stroke-linecap:round;}
	.st22{fill:#FCFCF7;}
	.st23{fill:#FCFCFC;}
	.st24{fill:#F4F4F2;}
	.st25{fill:#F9F9F7;}
	.st26{fill:#F7F7F5;}
	.st27{fill:#DBDDDD;}
	.st28{fill:url(#SVGID_2_);}
	.st29{fill:#F44E06;}
	.st30{clip-path:url(#SVGID_4_);}
	.st31{fill:#070707;}
	.st32{fill:#F9F9F9;stroke:#BCBCB8;stroke-miterlimit:10;}
</style>
<rect class="st0" width="1366" height="767"/>
<rect x="44" y="1" class="st1" width="1287" height="761"/>
<rect x="44" y="716" class="st2" width="1287" height="49"/>
<rect x="0" class="st3" width="1366" height="46"/>
<linearGradient id="SVGID_1_" gradientUnits="userSpaceOnUse" x1="81" y1="0" x2="81" y2="46">
	<stop  offset="0" style="stop-color:#F79810"/>
	<stop  offset="1" style="stop-color:#F8310E"/>
</linearGradient>
<rect x="44" class="st4" width="74" height="46"/>
<path class="st1" d="M55.8,23.8c0-0.1-0.1-0.2-0.3-0.2c-0.1,0-0.2,0.1-0.3,0.2c0,0-0.6,5.5-0.6,5.5l0.6,5.4c0,0.1,0.1,0.2,0.3,0.2
	c0.1,0,0.2-0.1,0.3-0.2l0.7-5.4L55.8,23.8z"/>
<path class="st1" d="M65.3,18.7c-0.2,0-0.5,0.2-0.5,0.5l-0.5,10.2l0.5,6.6c0,0.3,0.2,0.5,0.5,0.5c0.2,0,0.5-0.2,0.5-0.5v0l0.5-6.6
	l-0.5-10.2C65.7,18.9,65.5,18.7,65.3,18.7z"/>
<path class="st1" d="M60.4,22.3c-0.2,0-0.3,0.2-0.4,0.4l-0.5,6.7l0.5,6.5c0,0.2,0.2,0.4,0.4,0.4c0.2,0,0.3-0.2,0.4-0.4l0.6-6.5
	l-0.6-6.7C60.7,22.4,60.6,22.3,60.4,22.3z"/>
<path class="st1" d="M53.2,25.7c-0.1,0-0.2,0.1-0.2,0.2l-0.4,3.4l0.4,3.4c0,0.1,0.1,0.2,0.2,0.2c0.1,0,0.2-0.1,0.2-0.2l0.5-3.4
	l-0.5-3.4C53.5,25.8,53.4,25.7,53.2,25.7z"/>
<path class="st1" d="M70.3,36.4c0.3,0,0.6-0.2,0.6-0.6l0.5-6.5l-0.5-13.5c0-0.3-0.3-0.6-0.6-0.6c-0.3,0-0.6,0.2-0.6,0.6l-0.4,13.5
	l0.4,6.5C69.7,36.1,70,36.4,70.3,36.4z"/>
<path class="st1" d="M75.4,36.4c0.4,0,0.7-0.3,0.7-0.7v0l0.4-6.4l-0.4-13.6c0-0.4-0.3-0.7-0.7-0.7c-0.4,0-0.7,0.3-0.7,0.7l-0.4,13.6
	l0.4,6.4C74.7,36.1,75,36.4,75.4,36.4z"/>
<path class="st1" d="M80.6,36.4c0.4,0,0.8-0.3,0.8-0.8l0.3-6.3l-0.3-15.6c0-0.4-0.4-0.8-0.8-0.8c-0.4,0-0.8,0.3-0.8,0.8l-0.3,15.6
	c0,0,0.3,6.3,0.3,6.3C79.8,36,80.1,36.4,80.6,36.4z"/>
<path class="st1" d="M57.9,35.9c0.2,0,0.3-0.1,0.3-0.3l0.7-6.3l-0.7-6.5c0-0.2-0.1-0.3-0.3-0.3c-0.2,0-0.3,0.1-0.3,0.3l-0.6,6.5
	l0.6,6.3C57.6,35.8,57.8,35.9,57.9,35.9z"/>
<path class="st1" d="M62.8,36.3c0.2,0,0.4-0.2,0.4-0.4l0.6-6.6l-0.6-6.2c0-0.2-0.2-0.4-0.4-0.4c-0.2,0-0.4,0.2-0.4,0.4l-0.5,6.2
	l0.5,6.6C62.4,36.1,62.6,36.3,62.8,36.3z"/>
<path class="st1" d="M83.1,11.5c-0.5,0-0.8,0.4-0.8,0.8l-0.3,17l0.3,6.2c0,0.5,0.4,0.8,0.8,0.8c0.5,0,0.8-0.4,0.8-0.8v0l0.4-6.2
	l-0.4-17C84,11.9,83.6,11.5,83.1,11.5z"/>
<path class="st1" d="M67.8,36.4c0.3,0,0.5-0.2,0.5-0.5l0.5-6.5l-0.5-12.5c0-0.3-0.2-0.5-0.5-0.5c-0.3,0-0.5,0.2-0.5,0.5l-0.4,12.5
	l0.5,6.5C67.3,36.1,67.5,36.4,67.8,36.4z"/>
<path class="st1" d="M106.4,21.3L106.4,21.3c-1,0-2,0.2-2.9,0.6c-0.6-6.8-6.3-12.2-13.3-12.2c-1.7,0-3.4,0.3-4.8,0.9
	c-0.6,0.2-0.7,0.4-0.7,0.9v24c0,0.5,0.4,0.8,0.8,0.9c0,0,20.8,0,21,0c4.2,0,7.6-3.4,7.6-7.6C114,24.7,110.6,21.3,106.4,21.3z"/>
<path class="st1" d="M73.5,35.8l0.4-6.4l-0.4-14c0-0.3-0.3-0.6-0.6-0.6c-0.3,0-0.6,0.3-0.6,0.6l-0.4,14l0.4,6.4
	c0,0.3,0.3,0.6,0.6,0.6C73.2,36.4,73.4,36.1,73.5,35.8L73.5,35.8z"/>
<path class="st1" d="M78,15.5c-0.4,0-0.7,0.3-0.7,0.7l-0.3,13.1l0.3,6.3c0,0.4,0.3,0.7,0.7,0.7c0.4,0,0.7-0.3,0.7-0.7v0l0.4-6.3
	l-0.4-13.1C78.7,15.8,78.4,15.5,78,15.5z"/>
<rect x="233.8" y="2" class="st3" width="103.2" height="43.5"/>
<rect x="123" width="109" height="46"/>
<rect x="153.1" y="17.9" class="st5" width="49.4" height="25.1"/>
<text transform="matrix(1.1182 0 0 1 153.1206 28.5361)" class="st1 st6 st7">Home</text>
<rect x="252" y="16" class="st5" width="83.5" height="27.5"/>
<text transform="matrix(1 0 0 1 252 26.6499)" class="st1 st6 st7">Collection</text>
<g>
	<path class="st8" d="M351.5,37.5c-2.2,0-4-1.8-4-4V13.5c0-2.2,1.8-4,4-4h481.9c2.2,0,4,1.8,4,4v19.9c0,2.2-1.8,4-4,4H351.5z"/>
	<path d="M833.5,10c2,0,3.5,1.6,3.5,3.5v19.9c0,2-1.6,3.5-3.5,3.5H351.5c-2,0-3.5-1.6-3.5-3.5V13.5c0-2,1.6-3.5,3.5-3.5H833.5
		 M833.5,9H351.5c-2.5,0-4.5,2-4.5,4.5v19.9c0,2.5,2,4.5,4.5,4.5h481.9c2.5,0,4.5-2,4.5-4.5V13.5C838,11,836,9,833.5,9L833.5,9z"/>
</g>
<text transform="matrix(1 0 0 1 354.6665 28.6665)" class="st6 st7">Search</text>
<rect x="858.7" y="15" class="st5" width="83.3" height="30"/>
<text transform="matrix(1 0 0 1 858.667 25.6499)" class="st1 st6 st7">Upgrade</text>
<rect x="934.7" y="16.3" class="st5" width="52" height="21.3"/>
<text transform="matrix(1 0 0 1 934.667 26.9834)" class="st1 st6 st7">Upload</text>
<rect x="1041.3" y="16" class="st5" width="132.7" height="35.3"/>
<text transform="matrix(1 0 0 1 1041.333 26.6499)" class="st1 st6 st7">Amirreza  Safehian</text>
<rect x="78" y="89" class="st5" width="106" height="58"/>
<text transform="matrix(1 0 0 1 78 110.2998)" class="st9 st6 st10">Stream</text>
<rect x="290" y="91" class="st5" width="122" height="44"/>
<text transform="matrix(1 0 0 1 290 110.1699)" class="st6 st11">Discover</text>
<rect x="184" y="90" class="st5" width="94" height="56"/>
<text transform="matrix(1 0 0 1 184 111.2998)" class="st6 st10">Charts</text>
<rect x="1014" y="92" class="st5" width="112" height="40"/>
<text transform="matrix(1 0 0 1 1014 102.6499)" class="st6 st7">Who to follow</text>
<rect x="1252" y="92" class="st5" width="79" height="26"/>
<text transform="matrix(1 0 0 1 1252 102.6499)" class="st6 st7">Refresh</text>
<g>
	<path class="st12" d="M1253.1,161h43.7c2.8,0,5.1-2.3,5.1-5.1v-11.7c0-2.8-2.3-5.1-5.1-5.1h-43.7c-2.8,0-5.1,2.3-5.1,5.1v11.7
		C1248,158.7,1250.3,161,1253.1,161z"/>
	<rect x="1256.3" y="145.7" class="st5" width="36.7" height="14.3"/>
	<text transform="matrix(1 0 0 1 1260.7012 152.7666)" class="st6 st13">Follow</text>
</g>
<g>
	<path class="st12" d="M1250.1,250h43.7c2.8,0,5.1-2.3,5.1-5.1v-11.7c0-2.8-2.3-5.1-5.1-5.1h-43.7c-2.8,0-5.1,2.3-5.1,5.1v11.7
		C1245,247.7,1247.3,250,1250.1,250z"/>
	<rect x="1253.3" y="234.7" class="st5" width="36.7" height="14.3"/>
	<text transform="matrix(1 0 0 1 1257.7012 241.7666)" class="st6 st13">Follow</text>
</g>
<g>
	<path class="st12" d="M1250.1,326h43.7c2.8,0,5.1-2.3,5.1-5.1v-11.7c0-2.8-2.3-5.1-5.1-5.1h-43.7c-2.8,0-5.1,2.3-5.1,5.1v11.7
		C1245,323.7,1247.3,326,1250.1,326z"/>
	<rect x="1253.3" y="310.7" class="st5" width="36.7" height="14.3"/>
	<text transform="matrix(1 0 0 1 1257.7012 317.7666)" class="st6 st13">Follow</text>
</g>
<rect x="1238" y="389" class="st5" width="74" height="35.3"/>
<text transform="matrix(1 0 0 1 1251.0381 399.6494)" class="st6 st7">View all</text>
<rect x="1030.3" y="308.7" class="st5" width="118.7" height="17.3"/>
<text transform="matrix(1 0 0 1 1051.3721 319.3164)" class="st6 st7">lorem lorem</text>
<rect x="1030.3" y="428.7" class="st5" width="118.7" height="17.3"/>
<text transform="matrix(1 0 0 1 1051.3721 439.3164)" class="st6 st7">lorem lorem</text>
<polyline class="st5" points="1149,501.7 1149,519 1030.3,519 1030.3,501.7 "/>
<text transform="matrix(1 0 0 1 1051.3721 512.3169)" class="st6 st7">lorem lorem</text>
<rect x="1030.3" y="576.7" class="st5" width="118.7" height="17.3"/>
<text transform="matrix(1 0 0 1 1051.3721 587.3164)" class="st6 st7">lorem lorem</text>
<rect x="1030.3" y="230.7" class="st5" width="118.7" height="28.3"/>
<text transform="matrix(1 0 0 1 1051.3721 241.3164)" class="st6 st7">lorem lorem </text>
<rect x="1030.3" y="139.7" class="st5" width="118.7" height="18.3"/>
<text transform="matrix(1 0 0 1 1051.3721 150.3164)" class="st6 st7">lorem lorem</text>
<rect x="1010.3" y="389.3" class="st5" width="62.7" height="23.3"/>
<text transform="matrix(1 0 0 1 1018.6123 399.9834)" class="st6 st7">73 likes</text>
<rect x="988" y="424" width="54" height="54"/>
<rect x="988" y="499" width="54" height="54"/>
<rect x="988" y="574" width="54" height="54"/>
<rect x="1039" y="448" class="st5" width="245.3" height="18"/>
<text transform="matrix(1 0 0 1 1050.9307 458.6494)" class="st6 st7">Lorem ipsum dolor sit amet, consec</text>
<rect x="1039" y="522" class="st5" width="245.3" height="18"/>
<text transform="matrix(1 0 0 1 1050.9307 532.6494)" class="st6 st7">Lorem ipsum dolor sit amet, consec</text>
<rect x="1039" y="596" class="st5" width="245.3" height="18"/>
<text transform="matrix(1 0 0 1 1050.9307 606.6494)" class="st6 st7">Lorem ipsum dolor sit amet, consec</text>
<rect x="80" y="227" width="165" height="165"/>
<rect x="80" y="509" width="165" height="165"/>
<rect x="70" y="157" class="st5" width="471" height="30"/>
<text transform="matrix(1 0 0 1 79.144 171.1997)" class="st6 st14">Hear the latest posts from the people you’re following:</text>
<circle class="st9" cx="280.5" cy="253.5" r="19.5"/>
<circle class="st9" cx="280.5" cy="538.5" r="19.5"/>
<rect x="303" y="236" class="st5" width="86" height="20"/>
<text transform="matrix(1 0 0 1 304.3457 246.6499)" class="st6 st7">Lorem  lorem</text>
<rect x="303" y="519" class="st5" width="86" height="20"/>
<text transform="matrix(1 0 0 1 304.3457 529.6499)" class="st6 st7">Lorem  lorem</text>
<rect x="306" y="255" class="st5" width="230" height="17"/>
<text transform="matrix(1 0 0 1 310.2642 265.6499)" class="st6 st7">Lorem ipsum dolor sit amet, consec</text>
<rect x="306" y="539" class="st5" width="230" height="17"/>
<text transform="matrix(1 0 0 1 310.2642 549.6499)" class="st6 st7">Lorem ipsum dolor sit amet, consec</text>
<circle cx="97" cy="484" r="16"/>
<rect x="967" y="726" class="st15" width="31" height="31"/>
<rect x="317" y="739" class="st15" width="529" height="5"/>
<rect x="275" y="735" class="st5" width="40" height="26"/>
<text transform="matrix(1 0 0 1 281.9053 745.6494)" class="st6 st7">0:00</text>
<rect x="854" y="735" class="st5" width="33" height="18"/>
<text transform="matrix(1 0 0 1 857.4053 745.6494)" class="st6 st7">3:20</text>
<rect x="110" y="479" class="st5" width="100" height="24"/>
<text transform="matrix(1 0 0 1 121.293 489.6494)" class="st6 st7">User’s Name</text>
<g>
	<path class="st16" d="M917,540h-65c-5,0-9-4-9-9l0,0c0-5,4-9,9-9h65c5,0,9,4,9,9l0,0C926,536,922,540,917,540z"/>
	<rect x="850" y="526.1" class="st5" width="67" height="13.9"/>
	<text transform="matrix(1 0 0 1 854.7285 533.8691)" class="st6 st17">#Blues_Rock</text>
</g>
<g>
	<path class="st16" d="M917,255h-55c-5,0-9-4.1-9-9v0c0-4.9,4-9,9-9h55c5,0,9,4.1,9,9v0C926,250.9,922,255,917,255z"/>
	<rect x="865.3" y="241.1" class="st5" width="47.7" height="16.7"/>
	<text transform="matrix(0.8795 0 0 1 869.4658 248.8706)" class="st6 st17">#Business</text>
</g>
<rect x="261" y="288" class="st18" width="665" height="52"/>
<rect x="261" y="575" class="st18" width="665" height="52"/>
<rect x="1000" y="727" class="st5" width="74" height="14"/>
<text transform="matrix(1 0 0 1 1007.3721 735.5195)" class="st6 st19">musicName</text>
<rect x="996" y="745" class="st5" width="127" height="12.9"/>
<text transform="matrix(1 0 0 1 1007.416 753.5566)" class="st6 st19">Description Of music</text>
<polygon points="117.6,741.7 107.7,735.9 107.7,747.4 "/>
<g>
	<g>
		<polygon points="152.6,741.7 142.7,735.9 142.7,747.4 		"/>
	</g>
	<rect x="152" y="735" width="2" height="13"/>
</g>
<g>
	<g>
		<polygon points="70.3,741.3 79.7,746.8 79.7,735.9 		"/>
	</g>
	<rect x="69" y="735.4" transform="matrix(-1 -1.224647e-16 1.224647e-16 -1 139.8833 1483)" width="1.9" height="12.2"/>
</g>
<path d="M191,744.1h-1.3c-0.4,0-0.8-0.2-1.1-0.5l-4.1-4.9c-0.7-0.9-2.1-1.5-3.5-1.5H177v2.3h4.1c0.4,0,0.8,0.2,1.1,0.5l3.9,4.8
	c0.8,0.9,2.1,1.5,3.5,1.5h1.4v1.7l3.5-2.9l-3.5-2.8V744.1z M188.5,740c0.3-0.2,0.7-0.5,1.3-0.5h1.3v1.7l3.5-2.9l-3.5-2.9v1.7h-1.3
	c-1.4,0-2.7,0.6-3.5,1.5l1.7,2.1L188.5,740z M182.3,743.6c-0.3,0.2-0.7,0.5-1.3,0.5H177v2.3h4.1c1.4,0,2.7-0.6,3.5-1.5l-1.7-2.1
	L182.3,743.6z"/>
<g>
	<g transform="translate(0.000000,511.000000) scale(0.100000,-0.100000)">
		<path d="M2261-2210.6c-0.3-0.3-0.5-1-0.5-1.6c0-0.5,2.1-6.6,4.6-13.4c2.5-6.8,4.6-12.6,4.6-12.8c0-0.2-15.7-0.4-38.2-0.4
			c-21.5,0-40.9-0.2-44.3-0.5c-15.2-1.2-29.1-7.4-40.7-18c-10.7-9.9-19.2-25.3-22.2-40.4c-1.3-6.6-1.7-13.8-1.6-31.5l0.1-17.6
			l13.4,11.2l13.3,11.2v6.4c0,10.8,1.3,17.7,4.5,24.6c6.2,13.2,17.4,22.2,30.7,24.7c3.4,0.6,9,0.7,44.6,0.6l40.6-0.1l-4.7-12.8
			c-2.6-7-4.7-13.2-4.7-13.7c0-1.2,1-2.1,2.2-1.9c1.2,0.2,51.1,41.5,51.5,42.5c0.2,0.5,0,1.3-0.5,1.9c-1.4,1.8-50.5,42.2-51.3,42.2
			C2261.9-2210.1,2261.3-2210.3,2261-2210.6z"/>
		<path d="M2313.9-2271.7c-0.1,0-6.2-5.1-13.5-11.2l-13.2-11.2l-0.3-9.7c-0.3-10.5-0.9-13.6-3.6-20.1c-4.4-10.4-13.2-19.2-23.6-23.6
			c-6.7-2.8-6.3-2.8-51.6-2.6l-40.8,0.1v-30c1.2,0.5,8.3,0.5,42.8,0.7c42.7,0.1,43.3,0.1,47.7,1.1c9.2,2.1,18.2,6.1,25.6,11.4
			c5,3.5,12.6,11.2,16.4,16.6c7.6,10.6,13,25.4,13.9,37.9C2314-2307.6,2314.2-2271.7,2313.9-2271.7z"/>
	</g>
</g>
<path d="M216.1,742.9"/>
<g id="g1">
	<polygon id="polygon1" class="st20" points="933.7,733 928.5,737.5 923.5,737.5 923.5,743.3 928.4,743.3 933.7,747.9 	"/>
	<path id="path1" class="st21" d="M936.3,743.7c0.6-0.9,0.9-2,0.9-3.2c0-1.2-0.4-2.3-1-3.3"/>
	<path id="path2" class="st21" d="M938.4,735.1c1.1,1.5,1.8,3.4,1.8,5.4c0,2-0.7,3.9-1.8,5.4"/>
	<path id="path1_1_" class="st21" d="M940.4,747.8c1.6-2,2.6-4.6,2.6-7.4c0-2.8-1-5.4-2.6-7.4"/>
</g>
<g>
	<rect x="1304" y="744" width="12" height="2"/>
	<rect x="1304" y="740" width="12" height="2"/>
	<rect x="1304" y="736" width="8" height="2"/>
	<g>
		<polygon points="1318,735.4 1313.7,732.9 1313.7,737.9 		"/>
	</g>
</g>
<g>
	<g>
		<path d="M829.2,29.4l-4.1-4.1c-0.6,0.9-1.4,1.7-2.3,2.3l4.1,4.1c0.6,0.6,1.7,0.6,2.3,0C829.9,31.1,829.9,30.1,829.2,29.4z"/>
		<path d="M825.3,21.2c0-3.7-3-6.6-6.6-6.6c-3.7,0-6.6,3-6.6,6.6s3,6.6,6.6,6.6C822.3,27.9,825.3,24.9,825.3,21.2z M818.6,26.2
			c-2.7,0-5-2.2-5-5s2.2-5,5-5s5,2.2,5,5S821.4,26.2,818.6,26.2z"/>
		<path d="M814.8,21.2h1.1c0-1.5,1.2-2.8,2.8-2.8v-1.1C816.5,17.3,814.8,19.1,814.8,21.2z"/>
	</g>
</g>
<circle class="st22" cx="1297" cy="23" r="3"/>
<circle class="st22" cx="1306" cy="23" r="3"/>
<circle class="st22" cx="1315" cy="23" r="3"/>
<g>
	<path class="st23" d="M1260.7,25.2c-1.1,0.9-1.7,1.3-2.4,1.3c-0.6,0-1.3-0.4-2.3-1.2l-6,5.2h16.8L1260.7,25.2
		C1260.7,25.1,1260.7,25.1,1260.7,25.2z"/>
	<path class="st23" d="M1253.6,23.4c-1.4-1.1-3-2.3-4.6-3.6v9.9c0,0,0,0.1,0,0.1l6-5.3C1254.6,24.2,1254.1,23.8,1253.6,23.4z"/>
	<path class="st23" d="M1268,29.9c0-0.1,0-0.1,0-0.2V19.4c-1.9,1.5-4.6,3.6-6.3,4.9L1268,29.9z"/>
	<path class="st23" d="M1266.8,16.2h-16.6c-0.4,0-1.2,0.8-1.2,1.2v0.9c1.8,1.4,3.7,2.9,5.3,4.1c0.9,0.7,1.7,1.3,2.3,1.8
		c1.7,1.3,1.7,1.3,3.4-0.1c1.6-1.2,5.8-4.5,8-6.3v-0.5C1268,17,1267.2,16.2,1266.8,16.2z"/>
</g>
<g>
	<g transform="translate(0.000000,511.000000) scale(0.100000,-0.100000)">
		<path class="st24" d="M12102.2,4989.7c-5.8-1.5-9.2-6.3-9.2-13.1v-3.8l-4.6-1.3c-19.3-5.4-35-20.7-41.1-40
			c-2.4-7.7-2.7-10.6-2.7-30.8c0-18.9-0.3-23.2-1.8-28c-0.5-1.5-5.4-10.4-11.8-21c-6.1-10.1-11-18.7-11-19.1c0-1.4,1.5-3.4,2.9-3.9
			c1-0.4,10.8-0.5,31.7-0.5h30.2l0.3-2.3c1.5-12.3,14-20.4,26-16.7c7.4,2.3,13.1,9,14,16.7l0.3,2.3h30.2c20.8,0,30.6,0.1,31.7,0.5
			c1.4,0.5,2.9,2.5,2.9,3.9c0,0.4-4.8,8.8-10.7,18.6c-5.9,9.9-11.3,19.3-11.9,21c-1.2,3.1-1.2,3.1-1.5,25.3
			c-0.3,21.8-0.5,24.3-2.1,30.9c-3.2,12.9-11.6,25.4-22.9,33.7c-5.1,3.7-13.1,7.7-19.1,9.4l-4.6,1.3v3.8c0,5.8-2.3,9.9-6.8,12.2
			C12108.2,4989.9,12104.3,4990.3,12102.2,4989.7z M12107.7,4980.7c1.2-1.2,1.4-1.8,1.4-4.2v-2.7h-4h-4v2.6c0,2.8,0.8,4.5,2.6,5.2
			C12105.3,4982.3,12106.2,4982.2,12107.7,4980.7z M12114,4965c20.2-3.4,36.7-18.8,42-39c0.9-3.5,1-5.5,1.3-26.5
			c0.4-29.9-0.5-26.5,12.5-48.3c4.6-7.7,8.3-14.1,8.3-14.3s-32.9-0.2-73.2-0.2s-73.2,0.1-73.2,0.3c0,0.1,3.6,6.3,8.1,13.7
			c8.9,14.9,9.9,16.8,11.4,22.3c0.9,3.5,1,5.1,1.3,26.5c0.3,21.2,0.4,23,1.3,26.4c3,10.9,7.3,18.2,15.4,25.9
			C12081.3,4962.9,12097.5,4967.8,12114,4965z M12117.1,4827.4c0-3.8-3.8-8.9-7.8-10.2c-6.4-2.2-13.5,1-15.6,7.1
			c-1.5,4.3-2.4,3.9,11.3,3.9C12116.4,4828.2,12117.1,4828.2,12117.1,4827.4z"/>
	</g>
</g>
<path class="st25" d="M1172.5,25.7l0.6-0.6c0,0,0.1-0.1,0.1-0.1c0.3-0.3,0.6-0.6,0.9-0.9l2.3-2.3l-0.7-0.7l-4,4
	c0.1,0.1,0.2,0.2,0.3,0.3C1172.2,25.5,1172.3,25.6,1172.5,25.7z"/>
<path class="st26" d="M1172.9,25.4c0.1-0.1,0.2-0.3,0.4-0.4l-4-4l-0.7,0.7l4,4C1172.6,25.6,1172.7,25.5,1172.9,25.4z"/>
<circle class="st9" cx="1141.5" cy="145.5" r="6"/>
<polygon class="st1" points="1135.8,143.6 1140.2,143.6 1141.5,139.5 1142.9,143.7 1147.2,143.7 1143.7,146.2 1145,150.4 
	1141.5,147.8 1137.9,150.3 1139.3,146.2 "/>
<rect x="82" y="118" class="st27" width="834" height="3"/>
<rect x="628.2" y="374.3" transform="matrix(-2.848232e-15 1 -1 -2.848232e-15 1333.2008 -582.2008)" class="st27" width="659" height="2.4"/>
<rect x="974" y="120.6" class="st27" width="323" height="1.2"/>
<rect x="974" y="411.6" class="st27" width="323" height="1.2"/>
<rect x="974" y="664.6" class="st27" width="323" height="1.2"/>
<linearGradient id="SVGID_2_" gradientUnits="userSpaceOnUse" x1="82" y1="119.5" x2="168" y2="119.5">
	<stop  offset="0" style="stop-color:#F79810"/>
	<stop  offset="1" style="stop-color:#F8310E"/>
</linearGradient>
<rect x="82" y="118" class="st28" width="86" height="3"/>
<g>
	<g>
		<path class="st1" d="M1279,741.1c1.9,0,1.9-3,0-3C1277.1,738.1,1277.1,741.1,1279,741.1L1279,741.1z"/>
	</g>
</g>
<g>
	<g>
		<path class="st1" d="M1279.2,741c0.2,0,0.3,0,0.5,0c-0.2,0,0.2,0.1,0.2,0.1c0.8,0.2,1.7-0.3,1.8-1c0.2-0.8-0.2-1.6-1-1.8
			c-0.5-0.1-1-0.2-1.5-0.2c-0.8,0.1-1.5,0.6-1.5,1.5C1277.7,740.3,1278.3,741.1,1279.2,741L1279.2,741z"/>
	</g>
</g>
<g>
	<path class="st29" d="M1287.5,747.1l-0.3-0.2c-5.7-4.6-7.2-6.3-7.2-8.9c0-2.2,1.8-4,4-4c1.8,0,2.8,1,3.5,1.8
		c0.7-0.8,1.7-1.8,3.5-1.8c2.2,0,4,1.8,4,4c0,2.6-1.5,4.3-7.2,8.9L1287.5,747.1z M1284,734.9c-1.7,0-3.1,1.4-3.1,3.1
		c0,2.2,1.4,3.8,6.6,8c5.2-4.2,6.6-5.7,6.6-8c0-1.7-1.4-3.1-3.1-3.1c-1.5,0-2.4,0.9-3,1.7l-0.5,0.6l-0.5-0.6
		C1286.4,735.8,1285.5,734.9,1284,734.9z"/>
	<g>
		<g>
			<path class="st29" d="M1289,738.6c0.7-0.5,2.5-2.2,2.8-0.6c0.2,1.1-0.9,1.4-1.6,1.9c-1.3,1-2.5,2.2-3.6,3.5
				c0.8,0.2,1.7,0.4,2.5,0.7c-0.1-0.5,3.1-4,3.5-4.4c0.5-0.6,0.7-1.6,0-2.1c-0.7-0.6-1.3-0.8-2.2-0.7c-0.6,0-1.6,0.5-2.1,0.3
				c-0.4-0.2-0.4-0.3-0.8-0.7c-1.1-1.2-3.3-3.1-5.2-2c-1.1,0.7-2.2,3.1-1.9,4.4c0.2,0.8,0.9,1.5,1.7,1.7c1.2,0.3,2.8-1,3.9-0.1
				c0.2-0.8,0.4-1.7,0.7-2.5c-0.3,0.1-0.6,0.3-0.9,0.4c-1.4,0.6-1.5,2.4,0,2.9c0.5,0.2,1,0.4,1.4,0.5c0-1,0-1.9,0-2.9
				c-0.2,0-0.5,0-0.7,0.1c-1.1,0-1.9,1.3-1.3,2.3c0.1,0.1,0.1,0.2,0.2,0.4c0.7-0.7,1.4-1.4,2.1-2.1c-0.2-0.1-0.4-0.2-0.6-0.3
				c-0.8-0.7-2.2-0.5-2.5,0.7c-0.1,0.2-0.1,0.4-0.2,0.6c0.8-0.2,1.7-0.4,2.5-0.7c-0.5-0.4-0.9-0.8-1.4-1.2c-1.3-1.1-3.1,0.3-2.4,1.8
				c0.2,0.5,0.4,0.9,0.8,1.3c0.8-0.6,1.6-1.2,2.4-1.8c-1.2-0.9-2.2-1.2-3.7-0.9c-1.1,0.3-1.4,1.7-0.7,2.5c0.6,0.6,1.2,1.1,1.9,1.5
				c0.4,0.3,1,0.4,1.3,0.8c0.7,0.9,0.8,1.8,2,2.4c0.8,0.4,2.1,0.1,2.2-0.9c0.2-1.3-0.2-4.1,1-4.9c1.6-1.1,0.1-3.7-1.5-2.6
				c-2.5,1.7-2,4-2.4,6.7c0.7-0.3,1.5-0.6,2.2-0.9c-0.8-0.4-0.8-1.5-1.5-2.1c-0.9-0.8-2.1-1.2-3-2.1c-0.2,0.8-0.4,1.7-0.7,2.5
				c0.3,0,0.5,0.1,0.8,0.1c1.2,0.9,3.4-0.3,2.4-1.8c-0.3-0.4-0.6-0.8-0.8-1.3c-0.8,0.6-1.6,1.2-2.4,1.8c0.5,0.4,0.9,0.8,1.4,1.2
				c0.8,0.7,2.2,0.5,2.5-0.7c0.1-0.2,0.1-0.4,0.2-0.6c-0.8,0.2-1.7,0.4-2.5,0.7c0.4,0.3,0.7,0.6,1.2,0.8c1.3,0.7,2.8-0.7,2.1-2.1
				c-0.1-0.1-0.1-0.2-0.2-0.4c-0.4,0.8-0.9,1.5-1.3,2.3c0.6,0,1-0.1,1.5-0.2c1.6-0.3,1.3-2.4,0-2.9c-0.5-0.2-1-0.4-1.4-0.5
				c0,1,0,1.9,0,2.9c0.3-0.1,0.6-0.3,0.9-0.4c1-0.4,1.6-1.7,0.7-2.5c-1-0.8-2-1.4-3.3-1.3c-0.5,0-0.9,0.2-1.4,0.3
				c0.2,0.6,0.4,0.5,0.6-0.2c0.1-0.2,0.2-0.4,0.3-0.6c-0.4,0.2-0.9,0.5-1.3,0.7c2.1-0.2,2,2.1,3.4,2.8c0.4,0.2,0.8,0.2,1.3,0.2
				c0.3,0,2.5-0.7,2.6-0.6c0-0.7,0-1.4,0-2.1c-1.2,1.5-2.5,3-3.6,4.5c-0.7,0.9-1,1.7-0.7,2.8c0.3,1,1.8,1.6,2.5,0.7
				c1.3-1.7,2.9-2.8,4.5-4.2c1.5-1.2,1.9-2.7,1.3-4.5c-1.4-4-5.1-2.5-7.7-0.4C1285.4,737.7,1287.5,739.8,1289,738.6L1289,738.6z"/>
		</g>
	</g>
</g>
<g>
	<defs>
		<circle id="SVGID_3_" cx="1016" cy="23" r="14"/>
	</defs>
	<clipPath id="SVGID_4_">
		<use xlink:href="#SVGID_3_"  style="overflow:visible;"/>
	</clipPath>
	<g class="st30">
		<defs>
			<rect id="SVGID_5_" x="998" y="6" width="36.9" height="34"/>
		</defs>
		<clipPath id="SVGID_6_">
			<use xlink:href="#SVGID_5_"  style="overflow:visible;"/>
		</clipPath>
	</g>
</g>
<g>
	<defs>
		<circle id="SVGID_7_" cx="1010" cy="321" r="27"/>
	</defs>
	<clipPath id="SVGID_8_">
		<use xlink:href="#SVGID_7_"  style="overflow:visible;"/>
	</clipPath>
</g>
<g>
	<defs>
		<circle id="SVGID_9_" cx="1010" cy="238" r="27"/>
	</defs>
	<clipPath id="SVGID_10_">
		<use xlink:href="#SVGID_9_"  style="overflow:visible;"/>
	</clipPath>
</g>
<g>
	<defs>
		<circle id="SVGID_11_" cx="1010" cy="153" r="27"/>
	</defs>
	<clipPath id="SVGID_12_">
		<use xlink:href="#SVGID_11_"  style="overflow:visible;"/>
	</clipPath>
</g>
<g>
	<defs>
		<circle id="SVGID_13_" cx="97" cy="484" r="18"/>
	</defs>
	<clipPath id="SVGID_14_">
		<use xlink:href="#SVGID_13_"  style="overflow:visible;"/>
	</clipPath>
</g>
<polygon class="st1" points="293,253 272,241.7 278,253 272,264.6 "/>
<polygon class="st1" points="292,539 271,527.7 277,539 271,550.6 "/>
<g>
	<rect x="1116.3" y="161" class="st31" width="1" height="12"/>
	<rect x="1114.4" y="163.9" class="st31" width="1" height="6.7"/>
	<rect x="1112.5" y="165.3" class="st31" width="1" height="4.3"/>
	
		<rect x="1118.2" y="163.9" transform="matrix(-1 -4.547486e-11 4.547486e-11 -1 2237.4399 334.48)" class="st31" width="1" height="6.7"/>
	
		<rect x="1120.2" y="165.3" transform="matrix(-1 -4.357993e-11 4.357993e-11 -1 2241.28 334.96)" class="st31" width="1" height="4.3"/>
</g>
<g>
	<rect x="1118.3" y="253" class="st31" width="1" height="12"/>
	<rect x="1116.4" y="255.9" class="st31" width="1" height="6.7"/>
	<rect x="1114.5" y="257.3" class="st31" width="1" height="4.3"/>
	
		<rect x="1120.2" y="255.9" transform="matrix(-1 -4.547486e-11 4.547486e-11 -1 2241.4399 518.48)" class="st31" width="1" height="6.7"/>
	
		<rect x="1122.2" y="257.3" transform="matrix(-1 -4.357993e-11 4.357993e-11 -1 2245.28 518.96)" class="st31" width="1" height="4.3"/>
</g>
<g>
	<rect x="1118.3" y="329" class="st31" width="1" height="12"/>
	<rect x="1116.4" y="331.9" class="st31" width="1" height="6.7"/>
	<rect x="1114.5" y="333.3" class="st31" width="1" height="4.3"/>
	
		<rect x="1120.2" y="331.9" transform="matrix(-1 -4.547486e-11 4.547486e-11 -1 2241.4399 670.48)" class="st31" width="1" height="6.7"/>
	
		<rect x="1122.2" y="333.3" transform="matrix(-1 -4.357993e-11 4.357993e-11 -1 2245.28 670.96)" class="st31" width="1" height="4.3"/>
</g>
<rect x="1129.8" y="163.7" class="st5" width="19.2" height="10.3"/>
<text transform="matrix(1 0 0 1 1129.8408 170.7793)" class="st6 st13">581</text>
<rect x="1067.8" y="163.7" class="st5" width="19.2" height="10.3"/>
<text transform="matrix(1 0 0 1 1067.8408 170.7793)" class="st6 st13">261</text>
<rect x="1128.8" y="255.7" class="st5" width="19.2" height="10.3"/>
<text transform="matrix(1 0 0 1 1128.8408 262.7793)" class="st6 st13">12</text>
<rect x="1067.8" y="255.7" class="st5" width="19.2" height="10.3"/>
<text transform="matrix(1 0 0 1 1067.8408 262.7793)" class="st6 st13">156</text>
<rect x="1128.8" y="330.7" class="st5" width="19.2" height="10.3"/>
<text transform="matrix(1 0 0 1 1128.8408 337.7793)" class="st6 st13">124</text>
<rect x="1064.8" y="330.7" class="st5" width="19.2" height="10.3"/>
<text transform="matrix(1 0 0 1 1064.8408 337.7793)" class="st6 st13">171</text>
<g>
	<g>
		<path d="M1000.6,101.9c-0.7,0.4-1.5,0.6-2.4,0.6c-0.9,0-1.7-0.2-2.4-0.6c-1.8,0.6-3,2.4-3.4,4.1h11.5
			C1003.6,104.4,1002.4,102.5,1000.6,101.9z"/>
		<g>
			<path d="M998.2,93.2c-2.3,0-4.1,1.9-4.1,4.1s1.9,4.1,4.1,4.1s4.1-1.9,4.1-4.1C1002.4,95,1000.5,93.2,998.2,93.2z M998.2,100.5
				c-1.3,0-2.4-0.9-2.9-2h5.8C1000.7,99.6,999.6,100.5,998.2,100.5z"/>
		</g>
	</g>
	<g>
		<g>
			<path d="M1003.9,103.5h6.1c-0.4-1.6-1.5-3.2-3.4-3.8c-0.7,0.4-1.5,0.6-2.4,0.6c-0.6,0-1.1-0.1-1.6-0.3c-0.3,0.5-0.7,1-1.1,1.4
				C1002.5,101.8,1003.3,102.7,1003.9,103.5z"/>
		</g>
		<path d="M1003.2,96.3h3.9c-0.5,1.1-1.6,2-2.9,2c-0.3,0-0.7-0.1-1-0.2c-0.1,0.3-0.1,0.7-0.3,1c0.4,0.1,0.8,0.2,1.2,0.2
			c2.3,0,4.1-1.9,4.1-4.1c0-2.3-1.9-4.1-4.1-4.1c-1.5,0-2.8,0.8-3.5,1.9C1002,93.6,1002.9,94.9,1003.2,96.3z"/>
	</g>
</g>
<g>
	<g>
		<path d="M1058.9,169.1c-0.4,0.3-1,0.4-1.5,0.4c-0.6,0-1.1-0.1-1.5-0.4c-1.2,0.4-1.9,1.6-2.2,2.6h7.4
			C1060.8,170.7,1060.1,169.4,1058.9,169.1z"/>
		<g>
			<path d="M1057.4,163.4c-1.5,0-2.7,1.2-2.7,2.7s1.2,2.7,2.7,2.7c1.5,0,2.7-1.2,2.7-2.7C1060.1,164.6,1058.9,163.4,1057.4,163.4z
				 M1057.4,168.1c-0.9,0-1.6-0.6-1.9-1.3h3.7C1059,167.6,1058.2,168.1,1057.4,168.1z"/>
		</g>
	</g>
	<g>
		<g>
			<path d="M1061,170.1h4c-0.3-1.1-1-2.1-2.2-2.4c-0.4,0.3-1,0.4-1.5,0.4c-0.4,0-0.7-0.1-1.1-0.2c-0.2,0.3-0.4,0.6-0.7,0.9
				C1060.2,169,1060.7,169.6,1061,170.1z"/>
		</g>
		<path d="M1060.6,165.4h2.5c-0.3,0.7-1,1.3-1.9,1.3c-0.2,0-0.4,0-0.6-0.1c0,0.2-0.1,0.4-0.2,0.6c0.3,0.1,0.5,0.1,0.8,0.1
			c1.5,0,2.7-1.2,2.7-2.7c0-1.5-1.2-2.7-2.7-2.7c-0.9,0-1.8,0.5-2.3,1.2C1059.8,163.7,1060.4,164.5,1060.6,165.4z"/>
	</g>
</g>
<g>
	<g>
		<path d="M1058.9,262.1c-0.4,0.3-1,0.4-1.5,0.4c-0.6,0-1.1-0.1-1.5-0.4c-1.2,0.4-1.9,1.6-2.2,2.6h7.4
			C1060.8,263.7,1060.1,262.4,1058.9,262.1z"/>
		<g>
			<path d="M1057.4,256.4c-1.5,0-2.7,1.2-2.7,2.7c0,1.5,1.2,2.7,2.7,2.7c1.5,0,2.7-1.2,2.7-2.7S1058.9,256.4,1057.4,256.4z
				 M1057.4,261.1c-0.9,0-1.6-0.6-1.9-1.3h3.7C1059,260.6,1058.2,261.1,1057.4,261.1z"/>
		</g>
	</g>
	<g>
		<g>
			<path d="M1061,263.1h4c-0.3-1.1-1-2.1-2.2-2.4c-0.4,0.3-1,0.4-1.5,0.4c-0.4,0-0.7-0.1-1.1-0.2c-0.2,0.3-0.4,0.6-0.7,0.9
				C1060.2,262,1060.7,262.6,1061,263.1z"/>
		</g>
		<path d="M1060.6,258.4h2.5c-0.3,0.7-1,1.3-1.9,1.3c-0.2,0-0.4,0-0.6-0.1c0,0.2-0.1,0.4-0.2,0.6c0.3,0.1,0.5,0.1,0.8,0.1
			c1.5,0,2.7-1.2,2.7-2.7c0-1.5-1.2-2.7-2.7-2.7c-0.9,0-1.8,0.5-2.3,1.2C1059.8,256.7,1060.4,257.5,1060.6,258.4z"/>
	</g>
</g>
<g>
	<g>
		<path d="M1058.9,337.1c-0.4,0.3-1,0.4-1.5,0.4c-0.6,0-1.1-0.1-1.5-0.4c-1.2,0.4-1.9,1.6-2.2,2.6h7.4
			C1060.8,338.7,1060.1,337.4,1058.9,337.1z"/>
		<g>
			<path d="M1057.4,331.4c-1.5,0-2.7,1.2-2.7,2.7c0,1.5,1.2,2.7,2.7,2.7c1.5,0,2.7-1.2,2.7-2.7S1058.9,331.4,1057.4,331.4z
				 M1057.4,336.1c-0.9,0-1.6-0.6-1.9-1.3h3.7C1059,335.6,1058.2,336.1,1057.4,336.1z"/>
		</g>
	</g>
	<g>
		<g>
			<path d="M1061,338.1h4c-0.3-1.1-1-2.1-2.2-2.4c-0.4,0.3-1,0.4-1.5,0.4c-0.4,0-0.7-0.1-1.1-0.2c-0.2,0.3-0.4,0.6-0.7,0.9
				C1060.2,337,1060.7,337.6,1061,338.1z"/>
		</g>
		<path d="M1060.6,333.4h2.5c-0.3,0.7-1,1.3-1.9,1.3c-0.2,0-0.4,0-0.6-0.1c0,0.2-0.1,0.4-0.2,0.6c0.3,0.1,0.5,0.1,0.8,0.1
			c1.5,0,2.7-1.2,2.7-2.7c0-1.5-1.2-2.7-2.7-2.7c-0.9,0-1.8,0.5-2.3,1.2C1059.8,331.7,1060.4,332.5,1060.6,333.4z"/>
	</g>
</g>
<path d="M1242,101.8c-2.1,0-3.8-1.7-3.8-3.8s1.7-3.8,3.8-3.8c1,0,2,0.4,2.6,1.1l-1.8,1.8h4.2V93l-1.5,1.5c-0.9-0.9-2.2-1.5-3.5-1.5
	c-2.8,0-5,2.2-5,5s2.2,5,5,5c2.5,0,4.5-1.8,4.9-4.2h-1.3C1245.3,100.5,1243.8,101.8,1242,101.8z"/>
<g>
	<path class="st32" d="M538.9,395.5h-53.8c-2,0-3.6-1.6-3.6-3.6v-13.8c0-2,1.6-3.6,3.6-3.6h53.8c2,0,3.6,1.6,3.6,3.6v13.8
		C542.5,393.9,540.9,395.5,538.9,395.5z"/>
	<circle cx="489" cy="385" r="3"/>
	<circle cx="498" cy="385" r="3"/>
	<circle cx="506" cy="385" r="3"/>
	<rect x="514.8" y="380.4" class="st5" width="48.2" height="18.6"/>
	<text transform="matrix(1 0 0 1 514.7925 387.4839)" class="st6 st13">More</text>
</g>
<g>
	<path class="st32" d="M321.4,395h-53.8c-2,0-3.6-1.6-3.6-3.6v-13.8c0-2,1.6-3.6,3.6-3.6h53.8c2,0,3.6,1.6,3.6,3.6v13.8
		C325,393.4,323.4,395,321.4,395z"/>
	<g>
		<path d="M276.5,391.1l-0.3-0.2c-5.7-4.6-7.2-6.3-7.2-8.9c0-2.2,1.8-4,4-4c1.8,0,2.8,1,3.5,1.8c0.7-0.8,1.7-1.8,3.5-1.8
			c2.2,0,4,1.8,4,4c0,2.6-1.5,4.3-7.2,8.9L276.5,391.1z M273,378.9c-1.7,0-3.1,1.4-3.1,3.1c0,2.2,1.4,3.8,6.6,8
			c5.2-4.2,6.6-5.7,6.6-8c0-1.7-1.4-3.1-3.1-3.1c-1.5,0-2.4,0.9-3,1.7l-0.5,0.6l-0.5-0.6C275.4,379.8,274.5,378.9,273,378.9z"/>
	</g>
	<g>
		<g>
			<path d="M273.3,381.8c0.7,0,1.3,1,1.9,1.2c0.7,0.3,1.4,0.3,2.1,0.1c0.7-0.2,1.2-0.6,1.8-1c0.7-0.5,0.8-1.1,1.3-0.2
				c0.4,0.8,0,1-0.6,1.6c0.8,0.2,1.7,0.4,2.5,0.7c-0.3-0.8-0.4-1.5-0.4-2.4c0-1-1-1.7-1.9-1.4c-1.3,0.3-2.5,0.7-3.8,1
				c0.4,0.9,0.8,1.8,1.2,2.7c0.1-0.1,0.2-0.1,0.3-0.2c-0.5,0-1,0-1.5,0c0.1,0.1,0.2,0.2,0.4,0.3c-0.2-0.4-0.5-0.9-0.7-1.3
				c0,0,0,0.1,0,0.1c-0.4,0.8-0.1,2,0.9,2.2c0.6,0.1,1.2,0.2,1.7,0.4c-0.3-0.3-0.6-0.2-0.7,0.1c-0.7,0.6-1.4,1-2.2,1.4
				c0.7,0.6,1.5,1.1,2.2,1.7c0.2-1.5,1.3-2.6,0.6-4.1c-0.4-0.9-1.2-1.5-2.3-1.5c-1,0-1.9,0.7-2.2,1.6c-0.5,1.6,1,2.5,0.9,4
				c0.9-0.3,1.9-0.5,2.8-0.8c-0.9-1.9-2.9-3-4.1-4.7c-0.3-0.4-0.9-1.6-1-1.5c-0.4,0.4,0.6,2.4,0.8,2.8c0.7-0.7,1.4-1.4,2.1-2.1
				c-0.6-0.3-1.5-0.7-1.7-1.4c-0.1,0.5-0.3,1-0.4,1.5c-0.6,0.6-1.1-0.2-0.8,0.8c0.1,0.3,0.5,0.7,0.7,0.9c0.6,0.5,1.1,0.6,1.9,0.7
				c1.9,0.2,1.9-2.8,0-3c0,0-1.3-1.9-1.7-2c-0.9-0.3-1.6-0.1-2.2,0.5c-0.4,0.4-0.5,0.9-0.4,1.5c0.4,1.5,1.8,2.6,3.1,3.2
				c1.4,0.6,2.7-0.6,2.1-2.1c-0.8-1.6-0.3-3.7-2.1-4.6c-1.5-0.8-3,0.4-3.8,1.6c-2.5,3.7,3.8,6.7,5.1,9.4c0.7,1.5,2.7,0.6,2.8-0.8
				c0.1-0.7,0-1.9-0.6-2.4c-1.3-1-2.2,0.5-2.3,1.6c-0.2,1.3,1,2.4,2.2,1.7c1.6-0.8,3.8-2.1,4.2-4c0.5-2.5-1.9-3-3.7-3.4
				c0.3,0.7,0.6,1.5,0.9,2.2c0.6-1.4,0.5-2.3-0.7-3.2c-0.4-0.3-1.1-0.2-1.5,0c-0.1,0.1-0.2,0.1-0.3,0.2c-1.5,0.8-0.5,3.2,1.2,2.7
				c1.3-0.4,2.5-0.7,3.8-1c-0.6-0.5-1.3-1-1.9-1.4c0,1.1,0.2,2.1,0.6,3.2c0.4,0.9,1.7,1.6,2.5,0.7c1-1.2,2.3-2.3,2-4
				c-0.2-1.3-1.1-2.6-2.4-3.2c-1.4-0.6-2.7,0.1-3.8,0.9c-0.3,0.2-1,1-1.4,0.9c-0.1,0-0.7-0.7-0.9-0.9c-0.7-0.5-1.4-0.6-2.2-0.6
				C271.4,378.8,271.4,381.8,273.3,381.8L273.3,381.8z"/>
		</g>
	</g>
	<rect x="295" y="381.2" class="st5" width="25.7" height="19.5"/>
	<text transform="matrix(1 0 0 1 295.0073 388.3262)" class="st6 st13">261</text>
</g>
<g>
	<path class="st32" d="M390.9,395.5h-53.8c-2,0-3.6-1.6-3.6-3.6v-13.8c0-2,1.6-3.6,3.6-3.6h53.8c2,0,3.6,1.6,3.6,3.6v13.8
		C394.5,393.9,392.9,395.5,390.9,395.5z"/>
	<g>
		<g transform="translate(0.000000,511.000000) scale(0.100000,-0.100000)">
			<path d="M3541,1349.4c-0.3-0.3-0.5-1-0.5-1.6c0-0.5,2.1-6.6,4.6-13.4c2.5-6.8,4.6-12.6,4.6-12.8c0-0.2-15.7-0.4-38.2-0.4
				c-21.5,0-40.9-0.2-44.3-0.5c-15.2-1.2-29.1-7.4-40.7-18c-10.7-9.9-19.2-25.3-22.2-40.4c-1.3-6.6-1.7-13.8-1.6-31.5l0.1-17.6
				l13.4,11.2l13.3,11.2v6.4c0,10.8,1.3,17.7,4.5,24.6c6.2,13.2,17.4,22.2,30.7,24.7c3.4,0.6,9,0.7,44.6,0.6l40.6-0.1l-4.7-12.8
				c-2.6-7-4.7-13.2-4.7-13.7c0-1.2,1-2.1,2.2-1.9c1.2,0.2,51.1,41.5,51.5,42.5c0.2,0.5,0,1.3-0.5,1.9c-1.4,1.8-50.5,42.2-51.3,42.2
				C3541.9,1349.9,3541.3,1349.7,3541,1349.4z"/>
			<path d="M3593.9,1288.3c-0.1,0-6.2-5.1-13.5-11.2l-13.2-11.2l-0.3-9.7c-0.3-10.5-0.9-13.6-3.6-20.1
				c-4.4-10.4-13.2-19.2-23.6-23.6c-6.7-2.8-6.3-2.8-51.6-2.6l-40.8,0.1v-30c1.2,0.5,8.3,0.5,42.8,0.7c42.7,0.1,43.3,0.1,47.7,1.1
				c9.2,2.1,18.2,6.1,25.6,11.4c5,3.5,12.6,11.2,16.4,16.6c7.6,10.6,13,25.4,13.9,37.9C3594,1252.4,3594.2,1288.3,3593.9,1288.3z"/>
		</g>
	</g>
	<rect x="367.8" y="381.3" class="st5" width="29.1" height="11.4"/>
	<text transform="matrix(1 0 0 1 367.8379 388.3721)" class="st6 st13">55</text>
</g>
<g>
	<path class="st32" d="M464.9,395.5h-53.8c-2,0-3.6-1.6-3.6-3.6v-13.8c0-2,1.6-3.6,3.6-3.6h53.8c2,0,3.6,1.6,3.6,3.6v13.8
		C468.5,393.9,466.9,395.5,464.9,395.5z"/>
	<g id="share_2_">
		<g id="right_x5F_arrow_2_">
			<path d="M436.2,382.5l-8.5,6c-0.2,0.1-0.3,0.1-0.3-0.2l0-3.8c-2.4,0-7.6-0.1-9.2,3.4c0.1-7.2,7.4-8.2,9.2-8.3l0-3.4
				c0-0.2,0.1-0.3,0.3-0.2l8.5,6C436.4,382.2,436.4,382.4,436.2,382.5z"/>
		</g>
	</g>
	<rect x="414" y="379.1" width="1.3" height="12.6"/>
	<rect x="414" y="377.8" width="7" height="1.3"/>
	<rect x="414" y="391.7" width="18.1" height="1.3"/>
	<rect x="438.4" y="380.8" class="st5" width="32.6" height="12.1"/>
	<text transform="matrix(1 0 0 1 438.4414 387.9336)" class="st6 st13">Share</text>
</g>
<g>
	<path class="st32" d="M538.9,667.5h-53.8c-2,0-3.6-1.6-3.6-3.6v-13.8c0-2,1.6-3.6,3.6-3.6h53.8c2,0,3.6,1.6,3.6,3.6v13.8
		C542.5,665.9,540.9,667.5,538.9,667.5z"/>
	<circle cx="489" cy="657" r="3"/>
	<circle cx="498" cy="657" r="3"/>
	<circle cx="506" cy="657" r="3"/>
	<rect x="514.8" y="652.4" class="st5" width="48.2" height="18.6"/>
	<text transform="matrix(1 0 0 1 514.7925 659.4839)" class="st6 st13">More</text>
</g>
<g>
	<path class="st32" d="M321.4,667h-53.8c-2,0-3.6-1.6-3.6-3.6v-13.8c0-2,1.6-3.6,3.6-3.6h53.8c2,0,3.6,1.6,3.6,3.6v13.8
		C325,665.4,323.4,667,321.4,667z"/>
	<g>
		<path d="M276.5,663.1l-0.3-0.2c-5.7-4.6-7.2-6.3-7.2-8.9c0-2.2,1.8-4,4-4c1.8,0,2.8,1,3.5,1.8c0.7-0.8,1.7-1.8,3.5-1.8
			c2.2,0,4,1.8,4,4c0,2.6-1.5,4.3-7.2,8.9L276.5,663.1z M273,650.9c-1.7,0-3.1,1.4-3.1,3.1c0,2.2,1.4,3.8,6.6,8
			c5.2-4.2,6.6-5.7,6.6-8c0-1.7-1.4-3.1-3.1-3.1c-1.5,0-2.4,0.9-3,1.7l-0.5,0.6l-0.5-0.6C275.4,651.8,274.5,650.9,273,650.9z"/>
	</g>
	<g>
		<g>
			<path d="M273.3,653.8c0.7,0,1.3,1,1.9,1.2c0.7,0.3,1.4,0.3,2.1,0.1c0.7-0.2,1.2-0.6,1.8-1c0.7-0.5,0.8-1.1,1.3-0.2
				c0.4,0.8,0,1-0.6,1.6c0.8,0.2,1.7,0.4,2.5,0.7c-0.3-0.8-0.4-1.5-0.4-2.4c0-1-1-1.7-1.9-1.4c-1.3,0.3-2.5,0.7-3.8,1
				c0.4,0.9,0.8,1.8,1.2,2.7c0.1-0.1,0.2-0.1,0.3-0.2c-0.5,0-1,0-1.5,0c0.1,0.1,0.2,0.2,0.4,0.3c-0.2-0.4-0.5-0.9-0.7-1.3
				c0,0,0,0.1,0,0.1c-0.4,0.8-0.1,2,0.9,2.2c0.6,0.1,1.2,0.2,1.7,0.4c-0.3-0.3-0.6-0.2-0.7,0.1c-0.7,0.6-1.4,1-2.2,1.4
				c0.7,0.6,1.5,1.1,2.2,1.7c0.2-1.5,1.3-2.6,0.6-4.1c-0.4-0.9-1.2-1.5-2.3-1.5c-1,0-1.9,0.7-2.2,1.6c-0.5,1.6,1,2.5,0.9,4
				c0.9-0.3,1.9-0.5,2.8-0.8c-0.9-1.9-2.9-3-4.1-4.7c-0.3-0.4-0.9-1.6-1-1.5c-0.4,0.4,0.6,2.4,0.8,2.8c0.7-0.7,1.4-1.4,2.1-2.1
				c-0.6-0.3-1.5-0.7-1.7-1.4c-0.1,0.5-0.3,1-0.4,1.5c-0.6,0.6-1.1-0.2-0.8,0.8c0.1,0.3,0.5,0.7,0.7,0.9c0.6,0.5,1.1,0.6,1.9,0.7
				c1.9,0.2,1.9-2.8,0-3c0,0-1.3-1.9-1.7-2c-0.9-0.3-1.6-0.1-2.2,0.5c-0.4,0.4-0.5,0.9-0.4,1.5c0.4,1.5,1.8,2.6,3.1,3.2
				c1.4,0.6,2.7-0.6,2.1-2.1c-0.8-1.6-0.3-3.7-2.1-4.6c-1.5-0.8-3,0.4-3.8,1.6c-2.5,3.7,3.8,6.7,5.1,9.4c0.7,1.5,2.7,0.6,2.8-0.8
				c0.1-0.7,0-1.9-0.6-2.4c-1.3-1-2.2,0.5-2.3,1.6c-0.2,1.3,1,2.4,2.2,1.7c1.6-0.8,3.8-2.1,4.2-4c0.5-2.5-1.9-3-3.7-3.4
				c0.3,0.7,0.6,1.5,0.9,2.2c0.6-1.4,0.5-2.3-0.7-3.2c-0.4-0.3-1.1-0.2-1.5,0c-0.1,0.1-0.2,0.1-0.3,0.2c-1.5,0.8-0.5,3.2,1.2,2.7
				c1.3-0.4,2.5-0.7,3.8-1c-0.6-0.5-1.3-1-1.9-1.4c0,1.1,0.2,2.1,0.6,3.2c0.4,0.9,1.7,1.6,2.5,0.7c1-1.2,2.3-2.3,2-4
				c-0.2-1.3-1.1-2.6-2.4-3.2c-1.4-0.6-2.7,0.1-3.8,0.9c-0.3,0.2-1,1-1.4,0.9c-0.1,0-0.7-0.7-0.9-0.9c-0.7-0.5-1.4-0.6-2.2-0.6
				C271.4,650.8,271.4,653.8,273.3,653.8L273.3,653.8z"/>
		</g>
	</g>
	<rect x="295" y="653.2" class="st5" width="25.7" height="19.5"/>
	<text transform="matrix(1 0 0 1 295.0073 660.3262)" class="st6 st13">231</text>
</g>
<g>
	<path class="st32" d="M390.9,667.5h-53.8c-2,0-3.6-1.6-3.6-3.6v-13.8c0-2,1.6-3.6,3.6-3.6h53.8c2,0,3.6,1.6,3.6,3.6v13.8
		C394.5,665.9,392.9,667.5,390.9,667.5z"/>
	<g>
		<g transform="translate(0.000000,511.000000) scale(0.100000,-0.100000)">
			<path d="M3541-1370.6c-0.3-0.3-0.5-1-0.5-1.6c0-0.5,2.1-6.6,4.6-13.4c2.5-6.8,4.6-12.6,4.6-12.8c0-0.2-15.7-0.4-38.2-0.4
				c-21.5,0-40.9-0.2-44.3-0.5c-15.2-1.2-29.1-7.4-40.7-18c-10.7-9.9-19.2-25.3-22.2-40.4c-1.3-6.6-1.7-13.8-1.6-31.5l0.1-17.6
				l13.4,11.2l13.3,11.2v6.4c0,10.8,1.3,17.7,4.5,24.6c6.2,13.2,17.4,22.2,30.7,24.7c3.4,0.6,9,0.7,44.6,0.6l40.6-0.1l-4.7-12.8
				c-2.6-7-4.7-13.2-4.7-13.7c0-1.2,1-2.1,2.2-1.9c1.2,0.2,51.1,41.5,51.5,42.5c0.2,0.5,0,1.3-0.5,1.9c-1.4,1.8-50.5,42.2-51.3,42.2
				C3541.9-1370.1,3541.3-1370.3,3541-1370.6z"/>
			<path d="M3593.9-1431.7c-0.1,0-6.2-5.1-13.5-11.2l-13.2-11.2l-0.3-9.7c-0.3-10.5-0.9-13.6-3.6-20.1
				c-4.4-10.4-13.2-19.2-23.6-23.6c-6.7-2.8-6.3-2.8-51.6-2.6l-40.8,0.1v-30c1.2,0.5,8.3,0.5,42.8,0.7c42.7,0.1,43.3,0.1,47.7,1.1
				c9.2,2.1,18.2,6.1,25.6,11.4c5,3.5,12.6,11.2,16.4,16.6c7.6,10.6,13,25.4,13.9,37.9C3594-1467.6,3594.2-1431.7,3593.9-1431.7z"/>
		</g>
	</g>
	<rect x="367.8" y="653.3" class="st5" width="29.1" height="11.4"/>
	<text transform="matrix(1 0 0 1 367.8379 660.3721)" class="st6 st13">12</text>
</g>
<g>
	<path class="st32" d="M464.9,667.5h-53.8c-2,0-3.6-1.6-3.6-3.6v-13.8c0-2,1.6-3.6,3.6-3.6h53.8c2,0,3.6,1.6,3.6,3.6v13.8
		C468.5,665.9,466.9,667.5,464.9,667.5z"/>
	<g id="share_1_">
		<g id="right_x5F_arrow_1_">
			<path d="M436.2,654.5l-8.5,6c-0.2,0.1-0.3,0.1-0.3-0.2l0-3.8c-2.4,0-7.6-0.1-9.2,3.4c0.1-7.2,7.4-8.2,9.2-8.3l0-3.4
				c0-0.2,0.1-0.3,0.3-0.2l8.5,6C436.4,654.2,436.4,654.4,436.2,654.5z"/>
		</g>
	</g>
	<rect x="414" y="651.1" width="1.3" height="12.6"/>
	<rect x="414" y="649.8" width="7" height="1.3"/>
	<rect x="414" y="663.7" width="18.1" height="1.3"/>
	<rect x="438.4" y="652.8" class="st5" width="32.6" height="12.1"/>
	<text transform="matrix(1 0 0 1 438.4414 659.9336)" class="st6 st13">Share</text>
</g>
<g>
	<circle class="st18" cx="1017" cy="156" r="28"/>
</g>
<g>
	<circle class="st18" cx="1019" cy="23" r="16"/>
</g>
<g>
	<circle class="st18" cx="1017" cy="246" r="28"/>
</g>
<g>
	<circle class="st18" cx="1017" cy="324" r="28"/>
</g>
</svg>
