<?xml version="1.0" encoding="utf-8"?>
<!-- Generator: Adobe Illustrator 22.1.0, SVG Export Plug-In . SVG Version: 6.00 Build 0)  -->
<svg version="1.1" id="Layer_1" xmlns="http://www.w3.org/2000/svg" xmlns:xlink="http://www.w3.org/1999/xlink" x="0px" y="0px"
	 viewBox="0 0 962 737" style="enable-background:new 0 0 962 737;" xml:space="preserve">
<style type="text/css">
	.st0{fill:#0F0E0E;}
	.st1{fill:none;}
	.st2{fill:#EA0C0C;}
	.st3{font-family:'MyriadPro-Regular';}
	.st4{font-size:160px;}
	.st5{enable-background:new    ;}
</style>
<g>
	<path d="M171.9,436.3L140.7,525h-34l101-269h41l72,269h-36l-21.9-83.3L171.9,436.3z M257.5,415.5l-20.7-75.3
		c-4.7-17.1-7.6-32.5-10.5-47.6h-0.8c-4.7,15-9.8,30.3-15.7,45.6l-29.5,72.7L257.5,415.5z"/>
	<path d="M343.2,485.8h0.8c3.7-26.1,11.2-57.3,19.4-91.2L395.5,256h35.2l34.8,137.2c8,30.9,15.7,61.8,20.1,89.2h0.8
		c4.8-28.8,11.6-58.1,19-90.8L538.7,256h34l-70,269h-34.9l-35.9-138.4c-8.9-33.2-14.8-58.7-18.9-85h-0.8
		c-4.1,26.1-9.4,51.8-18.4,85.8L359.7,525h-35.4l-72.9-269l36.1,0.1L322,395.9C330.4,428.3,338,460.7,343.2,485.8"/>
	<path class="st0" d="M561.6,436.8l-20.9,88.3l-34.3-0.4l69.1-268.9l40,0.2l105.1,269.7l-35.3-0.5l-32.9-94.7L561.6,436.8z
		 M643.8,405.1l-30.2-72c-6.9-16.3-11.7-31.3-16.6-45.8l-0.8,0.1c-2.7,15.5-5.8,31.3-9.7,47.3l-19.9,75.9L643.8,405.1z"/>
</g>
<rect x="274.7" y="493" class="st1" width="166" height="145"/>
<text transform="matrix(1 0 0 1 274.6877 606.5986)" class="st2 st3 st4">o</text>
<rect x="529.7" y="139" class="st1" width="166" height="145"/>
<text transform="matrix(1 0 0 1 529.6877 252.5986)" class="st2 st3 st4">o</text>
<g>
	<path d="M60.7,547.4V197h37.1v11.2H74.5v326.1h23.3v13.2L60.7,547.4L60.7,547.4z"/>
</g>
<g>
	<path d="M755.8,197v350.4h-37.1v-11.2H742v-326h-23.3V197H755.8z"/>
</g>
<polygon class="st2" points="320.7,525 284.7,525 262.7,442 257.7,415 243.9,366.8 234,328.6 225.7,293 225.7,256.1 248.7,256 "/>
<polyline class="st2" points="250.7,256 287.7,256 343.7,486 343.7,525 324.7,525 251.7,256 251.7,256 251.7,256 "/>
<path class="st0" d="M485.7,482"/>
<polygon class="st2" points="485.9,482.4 485.9,525.1 502.7,525 572.7,256 538.7,256 509.2,375.8 499,419.3 490.3,460.9 "/>
<polyline class="st2" points="575.5,255.8 597.5,255.9 597.3,286.9 540.9,525.5 506.9,524.3 "/>
<rect x="807.3" y="141" class="st1" width="34.3" height="55.2"/>
<g class="st5">
	<path d="M808.4,167.4c0,6.8-5.5,10.3-16.4,10.3c-1.2,0-2.9,0-5-0.1s-3.5-0.1-4.2-0.1V194c-1.5-0.2-5.2-0.2-11.2,0v-49.3
		c0-3.5,0.8-6.2,2.4-8.4c1.7-2.3,4.3-3.5,7.7-3.5h16c3.6,0,6.2,1,8,3.1c1.8,2,2.7,4.8,2.7,8.3V167.4z M797.2,163.4v-16.9
		c0-0.6-0.3-1.2-0.8-1.6c-0.5-0.5-1.1-0.7-1.7-0.7h-8.8c-0.9,0-1.7,0.3-2.3,1c-0.6,0.7-0.9,1.5-0.9,2.3v15.2c0,2.3,1.2,3.5,3.5,3.5
		h8.6c0.6,0,1.1-0.3,1.6-0.9C797,164.6,797.2,164,797.2,163.4z"/>
	<path d="M825.8,177.3h-11.3v-61.1h11.3V177.3z"/>
	<path d="M867.4,166.9c0,2.9-1,5.4-2.9,7.4c-1.9,2-4.4,3-7.3,3h-15.3c-3.4,0-6-0.8-8-2.4c-2.2-1.8-3.3-4.3-3.3-7.5v-9.1
		c0-4.3,1.5-7.3,4.6-9.1c2.4-1.3,5.9-1.9,10.4-1.9c1.3,0,3.2,0.1,5.6,0.2c2.4,0.1,4.1,0.2,5.1,0.2c0.1-1.6,0-2.6-0.3-3
		c-0.3-0.7-1.2-1-2.7-1h-22.6v-10.7h25.4c7.5,0,11.3,3.5,11.3,10.4V166.9z M856.2,163.8v-3.3c0-1.6-1-2.3-2.9-2.3H844
		c-1.5,0-2.2,0.7-2.2,2.2v3.4c0,0.7,0.3,1.4,0.9,1.9c0.6,0.5,1.2,0.8,2,0.8h9C855.3,166.4,856.2,165.6,856.2,163.8z"/>
	<path d="M905.7,144.1h-19.2c-2.2,0-3.3,1-3.3,3.1c0,1.4,1.9,2.1,5.8,2.1c5.4,0.1,9,0.4,10.9,1.1c3.8,1.4,5.7,4.4,5.6,8.8
		c-0.1,6.2-0.5,10.2-1.2,12.2c-1.4,3.9-4.5,5.9-9.4,5.9h-23.1v-11.2h19.5c1.8,0,2.7-1.1,2.7-3.2c0-1.3-1.9-2-5.7-2.2
		c-5.3-0.2-8.8-0.6-10.5-1.2c-3.8-1.3-5.7-4.1-5.7-8.3v-8.4c0-3.1,1-5.6,3-7.3s4.6-2.7,7.8-2.7h22.6L905.7,144.1z"/>
	<path d="M912.3,177.3h11.1V150c-3.9,0-7.3,0-11.1,0V177.3z"/>
	<path d="M923.4,132.9V126c-3.5,0-7.6,0-11.1,0v6.9v11.6v5.6c3.8,0,7.2,0,11.1,0v-5.9h7.6v-11.3H923.4z"/>
	<path d="M923.4,116.3h-11.1v9.7c3.5,0,7.6,0,11.1,0V116.3z"/>
</g>
<polygon class="st2" points="912.3,132.9 912.3,126 923.4,126 923.4,132.9 931,132.9 931,144.1 923.4,144.1 923.4,150 912.3,150 
	912.3,144.1 905.7,144.1 905.6,132.9 "/>
</svg>
